{
  "source": "C:\\Users\\Peter\\Desktop\\stuff\\MIUN\\quantitative_research\\video_compression\\videos\\BVI-HD\\BVI-HD_CDVL_videos\\ORIG\\Boxing_1920x1080_30fps.mp4",
  "output": "C:\\Users\\Peter\\Desktop\\stuff\\MIUN\\quantitative_research\\video_compression\\compressed_videos\\BVI-HD\\av1\\2.5\\Boxing_1920x1080_30fps_av1.mkv",
  "codec": "av1",
  "ok": "Input #0, mov,mp4,m4a,3gp,3g2,mj2, from 'C:\\Users\\Peter\\Desktop\\stuff\\MIUN\\quantitative_research\\video_compression\\videos\\BVI-HD\\BVI-HD_CDVL_videos\\ORIG\\Boxing_1920x1080_30fps.mp4':\n  Metadata:\n    major_brand     : isom\n    minor_version   : 512\n    compatible_brands: isomiso2avc1mp41\n    encoder         : Lavf54.28.101\n  Duration: 00:00:05.00, start: 0.000000, bitrate: 238363 kb/s\n  Stream #0:0[0x1](und): Video: h264 (High 4:4:4 Predictive) (avc1 / 0x31637661), yuv420p(progressive), 1920x1080, 238359 kb/s, 30 fps, 30 tbr, 30 tbn (default)\n    Metadata:\n      handler_name    : VideoHandler\n      vendor_id       : [0][0][0][0]\n[out#0/matroska @ 000001efce430b80] Codec AVOption b:a (set bitrate (in bits/s)) has not been used for any stream. The most likely reason is either wrong type (e.g. a video option with no video streams) or that it is a private option of some decoder which was not actually used for any stream.\nStream mapping:\n  Stream #0:0 -> #0:0 (h264 (native) -> av1 (libsvtav1))\nPress [q] to stop, [?] for help\nSvt[info]: -------------------------------------------\nSvt[info]: SVT [version]:\tSVT-AV1 Encoder Lib v3.1.0-19-g6ecfe8ec\nSvt[info]: SVT [build]  :\tGCC 15.2.0\t 64 bit\nSvt[info]: LIB Build date: Aug 17 2025 11:37:13\nSvt[info]: -------------------------------------------\nSvt[info]: Level of Parallelism: 5\nSvt[info]: Number of PPCS 93\nSvt[info]: [asm level on system : up to avx2]\nSvt[info]: [asm level selected : up to avx2]\nSvt[info]: -------------------------------------------\nSvt[info]: SVT [config]: main profile\ttier (auto)\tlevel (auto)\nSvt[info]: SVT [config]: width / height / fps numerator / fps denominator \t\t: 1920 / 1080 / 30 / 1\nSvt[info]: SVT [config]: bit-depth / color format \t\t\t\t\t: 8 / YUV420\nSvt[info]: SVT [config]: preset / tune / pred struct \t\t\t\t\t: 4 / PSNR / random access\nSvt[info]: SVT [config]: gop size / mini-gop size / key-frame type \t\t\t: 161 / 16 / key frame\nSvt[info]: SVT [config]: BRC mode / target bitrate (kbps)\t\t\t\t: VBR / 2500 \nSvt[info]: SVT [config]: AQ mode / Variance Boost \t\t\t\t\t: 2 / 0\nSvt[info]: SVT [config]: sharpness / luminance-based QP bias \t\t\t\t: 0 / 0\nSvt[info]: SVT [config]: QP scale compress strength \t\t\t\t\t: 0\nSvt[info]: -------------------------------------------\nOutput #0, matroska, to 'C:\\Users\\Peter\\Desktop\\stuff\\MIUN\\quantitative_research\\video_compression\\compressed_videos\\BVI-HD\\av1\\2.5\\Boxing_1920x1080_30fps_av1.mkv':\n  Metadata:\n    major_brand     : isom\n    minor_version   : 512\n    compatible_brands: isomiso2avc1mp41\n    encoder         : Lavf62.3.100\n  Stream #0:0(und): Video: av1 (AV01 / 0x31305641), yuv420p(tv, progressive), 1920x1080, q=2-31, 2500 kb/s, 30 fps, 1k tbn (default)\n    Metadata:\n      encoder         : Lavc62.11.100 libsvtav1\n      handler_name    : VideoHandler\n      vendor_id       : [0][0][0][0]\n    Side data:\n      cpb: bitrate max/min/avg: 0/0/2500000 buffer size: 2500000 vbv_delay: N/A\nframe=    0 fps=0.0 q=0.0 size=       0KiB time=N/A bitrate=N/A speed=N/A elapsed=0:00:01.03    \nframe=    0 fps=0.0 q=0.0 size=       0KiB time=N/A bitrate=N/A speed=N/A elapsed=0:00:01.58    \nframe=    0 fps=0.0 q=0.0 size=       0KiB time=N/A bitrate=N/A speed=N/A elapsed=0:00:02.13    \nframe=    0 fps=0.0 q=0.0 size=       0KiB time=N/A bitrate=N/A speed=N/A elapsed=0:00:02.65    \nframe=    0 fps=0.0 q=0.0 size=       0KiB time=N/A bitrate=N/A speed=N/A elapsed=0:00:03.17    \nframe=    1 fps=0.3 q=16.0 size=       1KiB time=00:00:00.00 bitrate=N/A speed=   0x elapsed=0:00:03.69    \nframe=    1 fps=0.2 q=16.0 size=       1KiB time=00:00:00.00 bitrate=N/A speed=   0x elapsed=0:00:04.20    \nframe=    5 fps=1.1 q=37.0 size=       1KiB time=00:00:00.13 bitrate=  42.8kbits/s speed=0.0282x elapsed=0:00:04.72    \nframe=    9 fps=1.7 q=33.0 size=       1KiB time=00:00:00.26 bitrate=  21.4kbits/s speed=0.051x elapsed=0:00:05.23    \nframe=   16 fps=2.8 q=36.0 size=       1KiB time=00:00:00.46 bitrate=  12.2kbits/s speed=0.0808x elapsed=0:00:05.77    \nframe=   21 fps=3.3 q=36.0 size=       1KiB time=00:00:00.66 bitrate=   8.6kbits/s speed=0.105x elapsed=0:00:06.33    \nframe=   24 fps=3.5 q=35.0 size=       1KiB time=00:00:00.76 bitrate=   7.4kbits/s speed=0.112x elapsed=0:00:06.84    \nframe=   28 fps=3.8 q=37.0 size=       1KiB time=00:00:00.90 bitrate=   6.3kbits/s speed=0.122x elapsed=0:00:07.36    \nframe=   36 fps=4.6 q=37.0 size=       1KiB time=00:00:01.16 bitrate=   4.9kbits/s speed=0.148x elapsed=0:00:07.88    \nframe=   40 fps=4.8 q=34.0 size=       1KiB time=00:00:01.30 bitrate=   4.4kbits/s speed=0.155x elapsed=0:00:08.38    \nframe=   44 fps=4.9 q=35.0 size=       1KiB time=00:00:01.43 bitrate=   4.0kbits/s speed=0.161x elapsed=0:00:08.90    \nframe=   52 fps=5.5 q=38.0 size=       1KiB time=00:00:01.70 bitrate=   3.4kbits/s speed=0.18x elapsed=0:00:09.42    \nframe=   57 fps=5.7 q=26.0 size=       1KiB time=00:00:01.86 bitrate=   3.1kbits/s speed=0.188x elapsed=0:00:09.93    \nframe=   63 fps=6.0 q=37.0 size=       1KiB time=00:00:02.00 bitrate=   2.9kbits/s speed=0.191x elapsed=0:00:10.45    \nframe=   69 fps=6.3 q=36.0 size=       1KiB time=00:00:02.26 bitrate=   2.5kbits/s speed=0.206x elapsed=0:00:11.01    \nframe=   73 fps=6.3 q=28.0 size=       1KiB time=00:00:02.40 bitrate=   2.4kbits/s speed=0.208x elapsed=0:00:11.55    \nframe=   77 fps=6.4 q=34.0 size=       1KiB time=00:00:02.53 bitrate=   2.3kbits/s speed=0.21x elapsed=0:00:12.07    \nframe=   83 fps=6.6 q=38.0 size=       1KiB time=00:00:02.73 bitrate=   2.1kbits/s speed=0.216x elapsed=0:00:12.67    \nframe=   87 fps=6.6 q=35.0 size=       1KiB time=00:00:02.86 bitrate=   2.0kbits/s speed=0.217x elapsed=0:00:13.20    \nframe=   89 fps=6.5 q=26.0 size=       1KiB time=00:00:02.93 bitrate=   1.9kbits/s speed=0.213x elapsed=0:00:13.74    \nframe=   93 fps=6.5 q=34.0 size=       1KiB time=00:00:03.06 bitrate=   1.9kbits/s speed=0.214x elapsed=0:00:14.30    \nframe=   95 fps=6.4 q=35.0 size=       1KiB time=00:00:03.06 bitrate=   1.9kbits/s speed=0.206x elapsed=0:00:14.85    \nframe=   97 fps=6.3 q=14.0 size=       1KiB time=00:00:03.20 bitrate=   1.8kbits/s speed=0.207x elapsed=0:00:15.44    \nframe=  101 fps=6.3 q=34.0 size=       1KiB time=00:00:03.33 bitrate=   1.7kbits/s speed=0.208x elapsed=0:00:16.01    \nframe=  105 fps=6.3 q=24.0 size=       1KiB time=00:00:03.46 bitrate=   1.6kbits/s speed=0.209x elapsed=0:00:16.57    \nframe=  105 fps=6.1 q=24.0 size=       1KiB time=00:00:03.46 bitrate=   1.6kbits/s speed=0.203x elapsed=0:00:17.09    \nframe=  109 fps=6.2 q=33.0 size=       1KiB time=00:00:03.60 bitrate=   1.6kbits/s speed=0.204x elapsed=0:00:17.61    \nframe=  115 fps=6.3 q=37.0 size=       1KiB time=00:00:03.80 bitrate=   1.5kbits/s speed=0.21x elapsed=0:00:18.13    \nframe=  119 fps=6.4 q=36.0 size=       1KiB time=00:00:03.93 bitrate=   1.5kbits/s speed=0.211x elapsed=0:00:18.67    \nframe=  121 fps=6.3 q=25.0 size=       1KiB time=00:00:04.00 bitrate=   1.4kbits/s speed=0.208x elapsed=0:00:19.19    \nframe=  125 fps=6.3 q=35.0 size=       1KiB time=00:00:04.13 bitrate=   1.4kbits/s speed=0.21x elapsed=0:00:19.71    \nframe=  133 fps=6.6 q=37.0 size=       1KiB time=00:00:04.40 bitrate=   1.3kbits/s speed=0.217x elapsed=0:00:20.23    \nframe=  137 fps=6.6 q=30.0 size=       1KiB time=00:00:04.53 bitrate=   1.3kbits/s speed=0.219x elapsed=0:00:20.74    \n[out#0/matroska @ 000001efce430b80] video:1380KiB audio:0KiB subtitle:0KiB other streams:0KiB global headers:0KiB muxing overhead: 0.102810%\nframe=  150 fps=7.1 q=41.0 Lsize=    1382KiB time=00:00:04.96 bitrate=2278.8kbits/s speed=0.234x elapsed=0:00:21.21    \n",
  "seconds": 21.666619777679443,
  "probe_out": {}
}